<svg width="74" height="74" viewBox="0 0 74 74" fill="none" xmlns="http://www.w3.org/2000/svg">
<g clip-path="url(#clip0_468_210)">
<path d="M60.2068 10.2778H55.4996V14.3889H59.6107V65.7778H14.3885V14.3889H18.4996V10.2778H14.3885C13.8851 10.205 13.3719 10.2397 12.883 10.3798C12.394 10.5199 11.9403 10.762 11.5518 11.0903C11.1633 11.4186 10.8488 11.8255 10.6291 12.2843C10.4094 12.743 10.2895 13.2432 10.2773 13.7517V66.415C10.28 66.8739 10.3731 67.3278 10.5512 67.7507C10.7293 68.1736 10.989 68.5574 11.3154 68.8799C11.6418 69.2025 12.0285 69.4577 12.4535 69.6308C12.8785 69.8039 13.3334 69.8916 13.7923 69.8889H60.2068C60.6657 69.8916 61.1206 69.8039 61.5456 69.6308C61.9706 69.4577 62.3574 69.2025 62.6838 68.8799C63.0102 68.5574 63.2698 68.1736 63.4479 67.7507C63.626 67.3278 63.7191 66.8739 63.7218 66.415V13.7517C63.7191 13.2928 63.626 12.8389 63.4479 12.4159C63.2698 11.993 63.0102 11.6093 62.6838 11.2867C62.3574 10.9641 61.9706 10.709 61.5456 10.5359C61.1206 10.3628 60.6657 10.2751 60.2068 10.2778Z" fill="black"/>
<path d="M53.4446 15.0672C53.4391 13.7986 52.9328 12.5836 52.0358 11.6865C51.1388 10.7895 49.9237 10.2832 48.6551 10.2778H44.9551C44.5023 8.50913 43.4737 6.94151 42.0315 5.82206C40.5893 4.7026 38.8155 4.09497 36.9898 4.09497C35.1641 4.09497 33.3904 4.7026 31.9482 5.82206C30.506 6.94151 29.4774 8.50913 29.0246 10.2778H25.3451C24.0765 10.2832 22.8615 10.7895 21.9644 11.6865C21.0674 12.5836 20.5611 13.7986 20.5557 15.0672V22.6111H53.4446V15.0672ZM49.3334 18.5H24.6668V15.0672C24.6668 14.9781 24.6843 14.8899 24.7184 14.8076C24.7525 14.7253 24.8025 14.6505 24.8655 14.5875C24.9284 14.5246 25.0032 14.4746 25.0855 14.4405C25.1678 14.4064 25.256 14.3889 25.3451 14.3889H32.889V12.3333C32.889 11.243 33.3221 10.1973 34.0931 9.42632C34.8641 8.65534 35.9098 8.2222 37.0001 8.2222C38.0904 8.2222 39.1361 8.65534 39.9071 9.42632C40.6781 10.1973 41.1112 11.243 41.1112 12.3333V14.3889H48.6551C48.835 14.3889 49.0076 14.4603 49.1348 14.5875C49.262 14.7148 49.3334 14.8873 49.3334 15.0672V18.5Z" fill="black"/>
<path d="M22.6113 28.7778H51.3891V32.8889H22.6113V28.7778Z" fill="black"/>
<path d="M22.6113 37H51.3891V41.1111H22.6113V37Z" fill="black"/>
<path d="M22.6113 45.2222H51.3891V49.3333H22.6113V45.2222Z" fill="black"/>
<path d="M22.6113 53.4445H51.3891V57.5556H22.6113V53.4445Z" fill="black"/>
</g>
<defs>
<clipPath id="clip0_468_210">
<rect width="74" height="74" fill="white"/>
</clipPath>
</defs>
</svg>
